<!--?xml version="1.0" standalone="no"?-->
              <svg id="sw-js-blob-svg" viewBox="0 0 100 100" xmlns="http://www.w3.org/2000/svg" version="1.1">
                    <defs> 
                        <linearGradient id="sw-gradient" x1="0" x2="1" y1="1" y2="0">
                            <stop id="stop1" stop-color="rgba(55, 107.438, 248, 1)" offset="0%"></stop>
                            <stop id="stop2" stop-color="rgba(69, 72, 97, 1)" offset="100%"></stop>
                        </linearGradient>
                    </defs>
                <path fill="url(#sw-gradient)" d="M19.2,-21.9C27.1,-16.2,37.3,-12.3,40.1,-5.7C43,0.9,38.4,10.2,32.1,16.3C25.9,22.4,18.1,25.3,10,28.8C2,32.2,-6.4,36.3,-13.5,34.7C-20.6,33.1,-26.6,26,-31,18C-35.4,10.1,-38.2,1.4,-37.3,-7.1C-36.4,-15.6,-31.8,-24.1,-25,-30C-18.2,-35.9,-9.1,-39.4,-1.7,-37.3C5.6,-35.3,11.2,-27.7,19.2,-21.9Z" width="100%" height="100%" transform="translate(50 50)" stroke-width="0" style="transition: all 0.3s ease 0s;"></path>
              </svg>